<?xml version="1.0" encoding="UTF-8" standalone="no"?>
<svg
   xmlns:dc="http://purl.org/dc/elements/1.1/"
   xmlns:cc="http://creativecommons.org/ns#"
   xmlns:rdf="http://www.w3.org/1999/02/22-rdf-syntax-ns#"
   xmlns:svg="http://www.w3.org/2000/svg"
   xmlns="http://www.w3.org/2000/svg"
   xmlns:sodipodi="http://sodipodi.sourceforge.net/DTD/sodipodi-0.dtd"
   xmlns:inkscape="http://www.inkscape.org/namespaces/inkscape"
   data-v-2cb57da0=""
   version="1.0"
   width="100%"
   height="100%"
   viewBox="0 0 340.000000 250.000000"
   preserveAspectRatio="xMidYMid meet"
   color-interpolation-filters="sRGB"
   style="margin: auto;"
   id="svg48"
   sodipodi:docname="logo.svg"
   inkscape:version="0.92.5 (2060ec1f9f, 2020-04-08)">
  <metadata
     id="metadata52">
    <rdf:RDF>
      <cc:Work
         rdf:about="">
        <dc:format>image/svg+xml</dc:format>
        <dc:type
           rdf:resource="http://purl.org/dc/dcmitype/StillImage" />
        <dc:title></dc:title>
      </cc:Work>
    </rdf:RDF>
  </metadata>
  <sodipodi:namedview
     pagecolor="#ffffff"
     bordercolor="#666666"
     borderopacity="1"
     objecttolerance="10"
     gridtolerance="10"
     guidetolerance="10"
     inkscape:pageopacity="0"
     inkscape:pageshadow="2"
     inkscape:window-width="1920"
     inkscape:window-height="1039"
     id="namedview50"
     showgrid="false"
     inkscape:zoom="1.3350176"
     inkscape:cx="178.2796"
     inkscape:cy="149.62557"
     inkscape:window-x="0"
     inkscape:window-y="17"
     inkscape:window-maximized="1"
     inkscape:current-layer="g42" />
  <!---->
  <g
     data-v-2cb57da0=""
     fill="#333"
     class="icon-text-wrapper icon-svg-group iconsvg"
     transform="translate(80.63500213623047,73.15579605102539)"
     id="g44"
     inkscape:export-xdpi="64.449997"
     inkscape:export-ydpi="64.449997">
    <g
       id="g18"
       transform="translate(59.364998)"
       inkscape:export-xdpi="644.59131"
       inkscape:export-ydpi="644.59131">
      <svg
         id="svg16"
         version="1.1"
         style="overflow:visible"
         class="image-svg-svg primary"
         filtersec="colorsb7744939050"
         height="56.212406"
         width="60"
         y="0"
         x="0">
        <svg
           transform="matrix(1.151941,0,0,1.151941,-140,-69.99948)"
           style="overflow:visible"
           height="100%"
           width="100%"
           id="svg14"
           version="1.1"
           viewBox="0 0 86.809998 81.330002">
          <g
             style="fill-rule:evenodd"
             id="g12">
            <g
               id="g1011"
               transform="translate(128.3605,43.297718)">
              <path
                 d="m -96.109834,-46.892018 27.08,46.91000498 h -14.62 l -13.77,-23.84000098 -30.909996,53.540001 1.68,-23.72 z"
                 id="path6"
                 inkscape:connector-curvature="0"
                 style="overflow:visible;fill:#ebc65e;fill-rule:evenodd;stroke-width:1" />
              <path
                 d="m -124.49983,32.527987 27.079996,-46.910001 7.31,12.660001 -13.769996,23.85 h 61.829996 l -21.39,10.4 z"
                 id="path8"
                 inkscape:connector-curvature="0"
                 style="overflow:visible;fill:#11a8a2;fill-rule:evenodd;stroke-width:1" />
              <path
                 d="m -41.519834,17.407986 h -54.17 l 7.31,-12.66 h 27.53 l -30.91,-53.550004 19.7,13.320005 z"
                 id="path10"
                 inkscape:connector-curvature="0"
                 style="overflow:visible;fill:#ec6b50;fill-rule:evenodd;stroke-width:1" />
            </g>
          </g>
        </svg>
      </svg>
      <!---->
    </g>
    <g
       transform="translate(0,63.21240997314453)"
       id="g42">
      <g
         data-gra="path-name"
         fill-rule=""
         class="tp-name iconsvg-namesvg"
         id="g28"
         transform="translate(0.02118841,-3.0045108)"
         inkscape:export-xdpi="644.59131"
         inkscape:export-ydpi="644.59131">
        <g
           id="g26">
          <g
             id="g24">
            <path
               inkscape:connector-curvature="0"
               d="M 13.17,0 H 4.46 V -0.59 L 5.59,-0.82 Q 6.77,-1.07 6.77,-2.2 v 0 -7.7 q 0,-1.98 0,-3.95 0,-1.98 -0.03,-3.95 v 0 H 4.51 q -0.9,0 -1.32,0.48 -0.43,0.48 -0.85,1.35 v 0 l -0.99,2.09 H 0.56 l 0.15,-4.77 H 16.9 l 0.14,4.77 h -0.79 l -0.99,-2.09 q -0.42,-0.87 -0.85,-1.35 -0.42,-0.48 -1.32,-0.48 v 0 h -2.26 v 15.6 q 0,1.16 1.19,1.38 v 0 l 1.15,0.23 z m 12.08,0 h -7.06 v -0.54 l 0.43,-0.14 q 0.56,-0.14 0.77,-0.48 0.22,-0.34 0.22,-0.9 v 0 -8.26 q -0.03,-0.62 -0.23,-0.95 -0.2,-0.32 -0.76,-0.44 v 0 l -0.43,-0.11 v -0.51 l 4.6,-1.63 0.34,0.31 0.26,2.48 v 0.2 q 0.42,-0.79 1.07,-1.47 0.65,-0.68 1.41,-1.1 0.76,-0.42 1.52,-0.42 v 0 q 1.07,0 1.61,0.56 0.53,0.57 0.53,1.44 v 0 q 0,0.96 -0.53,1.45 -0.54,0.5 -1.3,0.5 v 0 q -1.13,0 -1.95,-1.02 v 0 l -0.05,-0.06 q -0.28,-0.33 -0.64,-0.38 -0.35,-0.04 -0.69,0.36 v 0 q -0.28,0.28 -0.52,0.66 -0.24,0.38 -0.44,0.89 v 0 7.39 q 0,0.53 0.23,0.89 0.22,0.35 0.76,0.49 v 0 l 0.85,0.25 z m 9.31,0.39 v 0 q -1.61,0 -2.73,-0.91 -1.11,-0.92 -1.11,-2.64 v 0 q 0,-1.35 1.31,-2.5 1.31,-1.14 4.13,-1.67 v 0 q 0.48,-0.12 1.12,-0.22 0.63,-0.09 1.25,-0.21 v 0 -2 q 0,-1.92 -0.48,-2.65 -0.48,-0.74 -1.52,-0.74 v 0 h -0.08 q -0.65,0 -1.03,0.41 -0.38,0.41 -0.5,1.34 v 0 l -0.08,0.37 q -0.09,1.13 -0.59,1.65 -0.51,0.52 -1.27,0.52 v 0 q -0.71,0 -1.17,-0.43 -0.47,-0.44 -0.47,-1.15 v 0 q 0,-1.15 0.79,-1.94 0.79,-0.79 2.1,-1.19 1.31,-0.39 2.84,-0.39 v 0 q 2.51,0 3.83,1.21 1.33,1.21 1.33,3.95 v 0 6.29 q 0,1.21 1.16,1.21 v 0 h 0.64 l 0.29,0.31 q -0.51,0.65 -1.13,1 -0.62,0.36 -1.69,0.36 v 0 q -1.22,0 -1.94,-0.58 -0.72,-0.58 -0.94,-1.54 v 0 q -0.9,0.96 -1.78,1.55 -0.87,0.59 -2.28,0.59 z m 1.63,-1.8 v 0 q 0.57,0 1.07,-0.25 0.51,-0.26 1.27,-0.85 v 0 -4.51 q -0.73,0.11 -1.49,0.28 v 0 q -1.21,0.28 -1.96,1.04 -0.75,0.76 -0.75,2.06 v 0 q 0,1.13 0.52,1.68 0.52,0.55 1.34,0.55 z m 12.05,-14.1 v 0 q -0.93,0 -1.58,-0.6 -0.65,-0.59 -0.65,-1.49 v 0 q 0,-0.93 0.65,-1.51 0.65,-0.58 1.58,-0.58 v 0 q 0.93,0 1.58,0.58 0.65,0.58 0.65,1.51 v 0 q 0,0.9 -0.65,1.49 -0.65,0.6 -1.58,0.6 z M 51.45,0 h -6.46 v -0.54 l 0.43,-0.11 q 0.56,-0.17 0.76,-0.51 0.2,-0.34 0.22,-0.9 v 0 -5.19 q 0,-0.87 0,-1.62 0,-0.75 -0.02,-1.54 v 0 q 0,-0.56 -0.22,-0.89 -0.21,-0.32 -0.77,-0.43 v 0 l -0.4,-0.09 v -0.51 l 4.94,-1.63 0.34,0.31 -0.09,4 v 7.62 q 0,0.56 0.21,0.9 0.22,0.34 0.75,0.51 v 0 l 0.31,0.08 z m 7.7,0 h -6.46 v -0.54 l 0.46,-0.11 q 0.93,-0.28 0.93,-1.38 v 0 -8.32 q -0.03,-0.59 -0.2,-0.92 -0.17,-0.32 -0.73,-0.44 v 0 l -0.46,-0.11 v -0.51 l 4.57,-1.63 0.34,0.31 0.2,1.75 q 1.02,-0.91 2.27,-1.49 1.26,-0.57 2.47,-0.57 v 0 q 1.86,0 2.86,1.01 1,1.02 1,3.11 v 0 7.84 q 0,1.1 1.02,1.38 v 0 l 0.31,0.08 V 0 h -6.49 v -0.54 l 0.42,-0.11 q 0.94,-0.31 0.94,-1.38 v 0 -8.38 q 0,-0.99 -0.43,-1.44 -0.42,-0.45 -1.41,-0.45 v 0 q -1.38,0 -2.88,1.21 v 0 9.09 q 0,1.1 0.99,1.38 v 0 l 0.28,0.08 z m 13.01,-15.51 v 0 q -0.93,0 -1.58,-0.6 -0.65,-0.59 -0.65,-1.49 v 0 q 0,-0.93 0.65,-1.51 0.65,-0.58 1.58,-0.58 v 0 q 0.93,0 1.58,0.58 0.65,0.58 0.65,1.51 v 0 q 0,0.9 -0.65,1.49 -0.65,0.6 -1.58,0.6 z M 75.37,0 h -6.46 v -0.54 l 0.43,-0.11 q 0.56,-0.17 0.76,-0.51 0.2,-0.34 0.22,-0.9 v 0 -5.19 q 0,-0.87 0,-1.62 0,-0.75 -0.02,-1.54 v 0 q 0,-0.56 -0.22,-0.89 -0.21,-0.32 -0.77,-0.43 v 0 l -0.4,-0.09 v -0.51 l 4.94,-1.63 0.34,0.31 -0.09,4 v 7.62 q 0,0.56 0.22,0.9 0.21,0.34 0.74,0.51 v 0 l 0.31,0.08 z m 7.7,0 h -6.46 v -0.54 l 0.46,-0.11 Q 78,-0.93 78,-2.03 v 0 -8.32 q -0.03,-0.59 -0.2,-0.92 -0.17,-0.32 -0.73,-0.44 v 0 l -0.46,-0.11 v -0.51 l 4.57,-1.63 0.34,0.31 0.2,1.75 q 1.02,-0.91 2.27,-1.49 1.26,-0.57 2.47,-0.57 v 0 q 1.86,0 2.86,1.01 1,1.02 1,3.11 v 0 7.84 q 0,1.1 1.02,1.38 v 0 l 0.31,0.08 V 0 h -6.49 v -0.54 l 0.43,-0.11 q 0.93,-0.31 0.93,-1.38 v 0 -8.38 q 0,-0.99 -0.43,-1.44 -0.42,-0.45 -1.41,-0.45 v 0 q -1.38,0 -2.87,1.21 v 0 9.09 q 0,1.1 0.98,1.38 v 0 l 0.28,0.08 z M 98.9,-4.82 v 0 q -1.86,0 -3.19,-0.62 v 0 1.01 q 0,0.85 0.85,1.02 v 0 l 5.02,0.93 q 1.44,0.28 2.54,0.69 1.1,0.41 1.72,1.16 0.62,0.74 0.62,2.01 v 0 q 0,1.36 -0.89,2.53 -0.89,1.17 -2.62,1.89 -1.74,0.72 -4.33,0.72 v 0 Q 96.39,6.52 95.08,6.05 93.77,5.59 93.2,4.85 92.64,4.12 92.64,3.27 v 0 q 0,-1.01 0.69,-2.03 0.69,-1.01 1.79,-1.69 v 0 Q 93.4,-1.1 93.4,-2.51 v 0 q 0,-0.54 0.25,-0.99 0.26,-0.45 0.62,-0.9 v 0 l 1.02,-1.27 q -2.03,-1.18 -2.03,-3.7 v 0 q 0,-2.05 1.45,-3.32 1.45,-1.27 4.19,-1.27 v 0 q 2.74,0 4.23,1.27 v 0 q 0.9,-0.14 1.69,-0.46 0.79,-0.31 1.47,-0.84 v 0 l 0.4,0.28 v 1.58 h -3.05 q 0.9,1.13 0.9,2.76 v 0 q 0,2.01 -1.45,3.28 -1.45,1.27 -4.19,1.27 z m -0.06,-0.77 v 0 q 1.19,0 1.74,-0.91 0.55,-0.92 0.55,-2.95 v 0 q 0,-2 -0.54,-2.88 -0.53,-0.87 -1.66,-0.87 v 0 q -1.13,0 -1.68,0.89 -0.55,0.89 -0.55,2.92 v 0 q 0,2.03 0.51,2.92 0.51,0.88 1.63,0.88 z m -4,8.04 v 0 q 0,1.56 0.99,2.33 0.98,0.78 3.13,0.78 v 0 q 2.37,0 3.51,-0.78 1.14,-0.77 1.14,-2.04 v 0 q 0,-0.79 -0.58,-1.24 -0.58,-0.46 -1.93,-0.71 v 0 L 96.05,-0.2 q -0.11,-0.03 -0.22,-0.05 v 0 Q 95.4,0.31 95.12,1.04 94.84,1.78 94.84,2.45 Z M 115.18,0 h -7.45 v -0.59 l 0.56,-0.14 q 0.57,-0.17 0.74,-0.51 0.17,-0.34 0.17,-0.93 v 0 q 0.02,-1.61 0.02,-3.26 0,-1.65 0,-3.31 v 0 -1.16 q 0,-1.64 0,-3.27 0,-1.64 -0.02,-3.28 v 0 q 0,-0.59 -0.19,-0.91 -0.18,-0.33 -0.74,-0.52 v 0 l -0.54,-0.17 v -0.6 h 6.8 q 4.12,0 5.99,1.54 1.88,1.54 1.88,4.05 v 0 q 0,1.58 -0.78,2.92 -0.77,1.34 -2.55,2.13 -1.78,0.79 -4.8,0.79 v 0 h -1.01 q 0,1.18 0,2.44 0,1.25 0.03,2.55 v 0 q 0,1.16 1.04,1.41 v 0 l 0.85,0.23 z m -1.92,-9.9 v 1.86 h 1.18 q 1.41,0 2.3,-0.44 0.89,-0.43 1.33,-1.51 0.43,-1.07 0.43,-2.96 v 0 q 0,-1.89 -0.46,-2.95 -0.47,-1.05 -1.4,-1.49 -0.93,-0.44 -2.31,-0.44 v 0 h -1.04 q -0.03,1.95 -0.03,3.94 0,1.99 0,3.99 z m 17.29,-4.06 v 0 q 1.78,0 3.05,0.73 1.27,0.73 1.96,2.02 0.69,1.28 0.69,2.94 v 0 q 0,0.37 -0.03,0.7 -0.03,0.32 -0.11,0.6 v 0 h -8.49 q 0.02,2.91 1.08,4.18 1.06,1.27 3.09,1.27 v 0 q 1.41,0 2.29,-0.47 0.87,-0.46 1.6,-1.31 v 0 l 0.46,0.42 q -0.85,1.55 -2.3,2.41 -1.46,0.86 -3.46,0.86 v 0 q -2,0 -3.53,-0.84 -1.52,-0.85 -2.38,-2.44 -0.86,-1.6 -0.86,-3.82 v 0 q 0,-2.32 1,-3.92 1,-1.61 2.6,-2.47 1.59,-0.86 3.34,-0.86 z m -0.14,0.81 v 0 q -0.82,0 -1.43,0.47 -0.6,0.47 -0.95,1.64 -0.36,1.17 -0.41,3.28 v 0 h 5.05 q 0.31,-2.85 -0.23,-4.12 -0.54,-1.27 -2.03,-1.27 z m 11.37,13.54 v 0 q -1.61,0 -2.72,-0.91 -1.12,-0.92 -1.12,-2.64 v 0 q 0,-1.35 1.31,-2.5 1.31,-1.14 4.14,-1.67 v 0 q 0.47,-0.12 1.11,-0.22 0.63,-0.09 1.25,-0.21 v 0 -2 q 0,-1.92 -0.47,-2.65 -0.48,-0.74 -1.53,-0.74 v 0 h -0.08 q -0.65,0 -1.03,0.41 -0.38,0.41 -0.5,1.34 v 0 l -0.08,0.37 q -0.09,1.13 -0.59,1.65 -0.51,0.52 -1.27,0.52 v 0 q -0.71,0 -1.17,-0.43 -0.47,-0.44 -0.47,-1.15 v 0 q 0,-1.15 0.79,-1.94 0.79,-0.79 2.1,-1.19 1.31,-0.39 2.84,-0.39 v 0 q 2.51,0 3.83,1.21 1.33,1.21 1.33,3.95 v 0 6.29 q 0,1.21 1.16,1.21 v 0 h 0.65 l 0.28,0.31 q -0.51,0.65 -1.13,1 -0.62,0.36 -1.69,0.36 v 0 q -1.22,0 -1.94,-0.58 -0.72,-0.58 -0.94,-1.54 v 0 q -0.9,0.96 -1.78,1.55 -0.87,0.59 -2.28,0.59 z m 1.63,-1.8 v 0 q 0.57,0 1.08,-0.25 0.5,-0.26 1.26,-0.85 v 0 -4.51 q -0.73,0.11 -1.49,0.28 v 0 q -1.21,0.28 -1.96,1.04 -0.75,0.76 -0.75,2.06 v 0 q 0,1.13 0.52,1.68 0.53,0.55 1.34,0.55 z M 158.79,0 h -6.55 v -0.54 l 0.43,-0.14 q 0.95,-0.28 0.95,-1.38 v 0 -14.61 q 0,-0.57 -0.22,-0.86 -0.23,-0.3 -0.79,-0.44 v 0 l -0.37,-0.11 v -0.54 l 4.94,-1.18 0.37,0.25 -0.12,3.98 v 13.51 q 0,1.13 0.96,1.41 v 0 l 0.4,0.11 z m 8.57,0 h -4.79 l -5.11,-7.05 4.99,-4.63 q 0.37,-0.31 0.43,-0.69 0.05,-0.38 -0.48,-0.52 v 0 L 161.95,-13 v -0.54 h 4.4 V -13 l -0.82,0.19 q -0.62,0.17 -1.02,0.47 -0.39,0.29 -0.93,0.77 v 0 l -3.1,2.91 4.8,6.57 q 0.45,0.59 0.81,0.92 0.37,0.32 0.99,0.55 v 0 l 0.28,0.08 z m 5.84,0.39 v 0 q -1.35,0 -2.44,-0.29 -1.08,-0.3 -2.07,-0.83 v 0 -3.33 h 0.76 l 0.85,1.61 q 0.53,1.04 1.22,1.55 0.69,0.51 1.77,0.51 v 0 q 1.32,0 2.11,-0.58 0.79,-0.58 0.79,-1.57 v 0 q 0,-0.9 -0.59,-1.47 -0.59,-0.56 -2.12,-1.04 v 0 l -1.24,-0.39 q -1.66,-0.51 -2.63,-1.54 -0.98,-1.03 -0.98,-2.58 v 0 q 0,-1.22 0.65,-2.22 0.65,-1 1.89,-1.59 1.24,-0.59 3.02,-0.59 v 0 q 1.16,0 2.13,0.26 0.97,0.27 1.9,0.75 v 0 l -0.17,3.02 h -0.73 l -0.87,-1.61 q -0.46,-0.9 -0.92,-1.25 -0.47,-0.36 -1.43,-0.36 v 0 q -1.01,0 -1.79,0.53 -0.77,0.52 -0.77,1.45 v 0 q 0,0.87 0.65,1.42 0.64,0.55 2.08,1.03 v 0 l 1.22,0.37 q 2.06,0.65 2.93,1.72 0.87,1.07 0.87,2.57 v 0 q 0,2 -1.59,3.23 -1.59,1.22 -4.5,1.22 z"
               transform="translate(-0.56,19.799999)"
               id="path22" />
          </g>
          <!---->
          <!---->
          <!---->
          <!---->
          <!---->
          <!---->
          <!---->
        </g>
      </g>
      <g
         style="fill:#333333"
         data-gra="path-slogan"
         fill-rule=""
         class="tp-slogan iconsvg-slogansvg"
         transform="translate(5.0211844,29.315489)"
         id="g40"
         inkscape:export-xdpi="644.59131"
         inkscape:export-ydpi="644.59131">
        <rect
           x="0"
           height="1"
           y="3.5800004"
           width="52.719997"
           id="rect30" />
        <rect
           height="1"
           y="3.5800004"
           width="52.719997"
           x="116.00999"
           id="rect32" />
        <g
           transform="translate(55.719997)"
           id="g38">
          <g
             id="g36">
            <path
               inkscape:connector-curvature="0"
               d="m 0.62,-3.94 c 0,0.64 0.09,1.22 0.26,1.73 0.17,0.5 0.41,0.93 0.72,1.28 0.31,0.35 0.67,0.61 1.09,0.8 0.42,0.18 0.88,0.27 1.38,0.27 0.5,0 0.95,-0.1 1.34,-0.3 C 5.8,-0.36 6.16,-0.64 6.47,-1 L 5.9,-1.61 c -0.25,0.28 -0.52,0.5 -0.81,0.65 -0.28,0.15 -0.61,0.23 -1,0.23 -0.37,0 -0.71,-0.08 -1.01,-0.23 C 2.78,-1.11 2.52,-1.33 2.32,-1.61 2.11,-1.89 1.95,-2.23 1.83,-2.62 1.71,-3.02 1.66,-3.46 1.66,-3.96 c 0,-0.49 0.06,-0.93 0.18,-1.32 0.12,-0.39 0.28,-0.73 0.5,-1 0.22,-0.28 0.48,-0.49 0.78,-0.64 0.3,-0.15 0.64,-0.22 1.02,-0.22 0.34,0 0.63,0.07 0.88,0.2 0.25,0.13 0.48,0.31 0.69,0.53 L 6.28,-7.04 C 6.04,-7.3 5.75,-7.53 5.39,-7.72 c -0.36,-0.2 -0.78,-0.3 -1.26,-0.3 -0.51,0 -0.97,0.1 -1.4,0.29 -0.43,0.18 -0.8,0.45 -1.11,0.81 -0.31,0.35 -0.56,0.78 -0.73,1.28 -0.18,0.5 -0.27,1.07 -0.27,1.7 z m 9.87,4.08 c 0.49,0 0.95,-0.09 1.36,-0.28 0.41,-0.2 0.77,-0.47 1.07,-0.83 0.3,-0.35 0.53,-0.78 0.69,-1.29 0.17,-0.51 0.25,-1.08 0.25,-1.71 0,-0.63 -0.08,-1.19 -0.25,-1.69 -0.16,-0.5 -0.39,-0.92 -0.69,-1.27 -0.3,-0.35 -0.66,-0.62 -1.07,-0.8 -0.41,-0.19 -0.87,-0.29 -1.36,-0.29 -0.5,0 -0.95,0.1 -1.36,0.28 -0.42,0.18 -0.77,0.45 -1.07,0.8 -0.29,0.35 -0.52,0.77 -0.69,1.27 -0.16,0.5 -0.24,1.07 -0.24,1.7 0,0.63 0.08,1.2 0.24,1.71 0.17,0.51 0.4,0.94 0.69,1.29 0.3,0.36 0.65,0.63 1.07,0.83 0.41,0.19 0.86,0.28 1.36,0.28 z m 0,-0.87 C 10.14,-0.73 9.82,-0.81 9.53,-0.96 9.25,-1.11 9.01,-1.33 8.8,-1.61 8.6,-1.9 8.44,-2.24 8.33,-2.63 8.22,-3.03 8.16,-3.48 8.16,-3.97 c 0,-0.49 0.06,-0.93 0.17,-1.32 0.11,-0.39 0.27,-0.73 0.47,-1 0.21,-0.27 0.45,-0.48 0.73,-0.63 0.29,-0.15 0.61,-0.22 0.96,-0.22 0.35,0 0.67,0.07 0.95,0.22 0.29,0.15 0.53,0.36 0.73,0.63 0.21,0.27 0.37,0.61 0.48,1 0.11,0.39 0.17,0.83 0.17,1.32 0,0.49 -0.06,0.94 -0.17,1.34 -0.11,0.39 -0.27,0.73 -0.48,1.02 -0.2,0.28 -0.44,0.5 -0.73,0.65 -0.28,0.15 -0.6,0.23 -0.95,0.23 z m 5.06,-7.14 V 0 h 0.93 v -4.33 c 0,-0.35 -0.02,-0.74 -0.05,-1.17 -0.03,-0.42 -0.06,-0.81 -0.09,-1.16 h 0.05 l 0.63,1.75 1.52,4.12 h 0.56 l 1.52,-4.12 0.63,-1.75 h 0.05 c -0.03,0.35 -0.06,0.74 -0.09,1.16 -0.03,0.43 -0.04,0.82 -0.04,1.17 V 0 h 0.95 v -7.87 h -1.18 l -1.51,4.22 -0.55,1.61 h -0.05 l -0.58,-1.61 -1.52,-4.22 z m 8.73,0 V 0 h 0.92 v -4.33 c 0,-0.35 -0.02,-0.74 -0.05,-1.17 -0.03,-0.42 -0.06,-0.81 -0.08,-1.16 h 0.05 l 0.62,1.75 1.52,4.12 h 0.57 l 1.51,-4.12 0.64,-1.75 h 0.04 c -0.03,0.35 -0.06,0.74 -0.09,1.16 -0.02,0.43 -0.04,0.82 -0.04,1.17 V 0 h 0.95 v -7.87 h -1.18 l -1.51,4.22 -0.55,1.61 h -0.05 l -0.57,-1.61 -1.53,-4.22 z m 8.72,0 V 0 h 4.66 V -0.85 H 34 v -2.86 h 2.98 V -4.56 H 34 v -2.47 h 3.54 v -0.84 z m 6.32,0 V 0 h 0.95 v -4.12 c 0,-0.41 -0.01,-0.83 -0.04,-1.24 -0.03,-0.41 -0.06,-0.82 -0.09,-1.22 h 0.05 L 41.04,-4.96 43.9,0 h 1.03 v -7.87 h -0.95 v 4.07 c 0,0.41 0.01,0.83 0.04,1.26 0.03,0.43 0.06,0.84 0.08,1.24 H 44.05 L 43.2,-2.93 40.36,-7.87 Z m 9.4,0.84 V 0 h 1.01 v -7.03 h 2.37 v -0.84 h -5.76 v 0.84 z m 4.36,5.31 -0.6,0.7 c 0.34,0.36 0.75,0.64 1.22,0.85 0.47,0.21 0.98,0.31 1.54,0.31 0.41,0 0.78,-0.05 1.11,-0.17 0.33,-0.12 0.61,-0.28 0.84,-0.48 0.23,-0.2 0.41,-0.44 0.54,-0.71 0.12,-0.28 0.18,-0.57 0.18,-0.88 0,-0.29 -0.04,-0.54 -0.12,-0.76 C 57.7,-3.08 57.59,-3.27 57.44,-3.44 57.3,-3.6 57.13,-3.75 56.93,-3.87 56.73,-3.99 56.52,-4.1 56.29,-4.2 l -1.11,-0.48 c -0.16,-0.06 -0.32,-0.13 -0.47,-0.21 -0.15,-0.08 -0.29,-0.16 -0.42,-0.26 -0.13,-0.1 -0.23,-0.22 -0.31,-0.35 -0.07,-0.13 -0.11,-0.3 -0.11,-0.49 0,-0.36 0.13,-0.64 0.4,-0.84 0.27,-0.21 0.62,-0.31 1.06,-0.31 0.37,0 0.7,0.07 0.99,0.2 0.29,0.13 0.56,0.31 0.8,0.54 l 0.54,-0.64 c -0.28,-0.29 -0.62,-0.53 -1.02,-0.71 -0.4,-0.18 -0.84,-0.27 -1.31,-0.27 -0.36,0 -0.69,0.06 -0.99,0.16 -0.3,0.1 -0.56,0.25 -0.78,0.44 -0.22,0.19 -0.39,0.41 -0.51,0.66 -0.13,0.26 -0.19,0.54 -0.19,0.83 0,0.29 0.05,0.54 0.14,0.76 0.1,0.22 0.22,0.41 0.38,0.57 0.15,0.16 0.32,0.3 0.51,0.41 0.19,0.11 0.38,0.21 0.57,0.29 l 1.12,0.49 c 0.19,0.09 0.36,0.17 0.52,0.25 0.16,0.08 0.3,0.17 0.41,0.27 0.12,0.1 0.21,0.22 0.28,0.36 0.07,0.14 0.1,0.31 0.1,0.51 0,0.39 -0.14,0.7 -0.43,0.93 -0.29,0.24 -0.69,0.36 -1.21,0.36 -0.41,0 -0.8,-0.09 -1.18,-0.27 -0.38,-0.18 -0.71,-0.42 -0.99,-0.72 z"
               transform="translate(-0.624,8.016)"
               id="path34" />
          </g>
        </g>
      </g>
    </g>
  </g>
  <defs
     v-gra="od"
     id="defs46" />
</svg>
